<?xml version="1.0" encoding="UTF-8"?>
<!DOCTYPE svg PUBLIC "-//W3C//DTD SVG 1.1//EN" "http://www.w3.org/Graphics/SVG/1.1/DTD/svg11.dtd">
<!-- Creator: CorelDRAW -->
<svg xmlns="http://www.w3.org/2000/svg" xml:space="preserve" width="1.70666in" height="1.70666in" version="1.1" style="shape-rendering:geometricPrecision; text-rendering:geometricPrecision; image-rendering:optimizeQuality; fill-rule:evenodd; clip-rule:evenodd"
viewBox="0 0 1707 1707"
 xmlns:xlink="http://www.w3.org/1999/xlink">
 <defs>
  <style type="text/css">
   <![CDATA[
    .fil0 {fill:black}
   ]]>
  </style>
 </defs>
 <g id="Layer_x0020_1">
  <metadata id="CorelCorpID_0Corel-Layer"/>
  <path class="fil0" d="M585 1490l-92 0 -18 136 199 0 0 -196c0,-99 80,-180 179,-180 99,0 180,81 180,180l0 196 199 0 -22 -170 -127 0c-53,0 -53,-80 0,-80l116 0 -26 -195 -103 0c-53,0 -53,-80 0,-80l93 0 -9 -66 -601 0 -12 94 76 0c52,0 52,80 0,80l-87 0 -27 201 82 0c53,0 53,80 0,80zm-167 -45l48 -364c-16,13 -39,12 -53,-2l-93 -93c-16,-16 -15,-42 1,-58l362 -329c-11,-35 -11,-72 0,-107l-362 -329c-16,-16 -17,-42 -1,-58l93 -93c16,-16 42,-15 57,2l330 361c34,-11 72,-11 107,0l329 -361c16,-17 42,-18 58,-2l93 93c16,16 15,42 -2,58l-361 329c10,35 10,72 0,107l361 329c17,16 18,42 2,58l-93 93c-14,14 -38,15 -53,2l76 580c3,24 -15,45 -39,45l-849 0c-24,0 -43,-21 -40,-45l29 -216zm336 181l199 0 0 -196c0,-55 -45,-100 -100,-100 -55,0 -99,45 -99,100l0 196zm99 -902c-18,0 -36,-3 -53,-8l-219 240 544 0 -218 -240c-17,5 -35,8 -54,8zm-124 -50l-4 -5 -319 290 33 33 290 -318zm-4 -252l4 -5 -289 -319 -34 34 319 290zm252 -5l5 5 318 -290 -33 -34 -290 319zm5 252l-5 5 290 318 33 -33 -318 -290zm-129 -222c-100,0 -139,135 -44,186 45,25 107,6 132,-42 34,-66 -14,-144 -88,-144z"/>
 </g>
</svg>
