<svg width="32" height="40" viewBox="0 0 32 40" fill="none" xmlns="http://www.w3.org/2000/svg">
<path d="M15.9997 40C15.4941 40 15.0608 39.8667 14.6997 39.6C14.3386 39.3333 14.0677 38.9833 13.8872 38.55C13.2011 36.6833 12.3344 34.9333 11.2872 33.3C10.2761 31.6667 8.84967 29.75 7.00801 27.55C5.16634 25.35 3.66773 23.25 2.51217 21.25C1.39273 19.25 0.833008 16.8333 0.833008 14C0.833008 10.1 2.29551 6.8 5.22051 4.1C8.18162 1.36667 11.7747 0 15.9997 0C20.2247 0 23.7997 1.36667 26.7247 4.1C29.6858 6.8 31.1663 10.1 31.1663 14C31.1663 17.0333 30.5344 19.5667 29.2705 21.6C28.0427 23.6 26.6163 25.5833 24.9913 27.55C23.0413 29.95 21.5608 31.95 20.5497 33.55C19.5747 35.1167 18.7622 36.7833 18.1122 38.55C17.9316 39.0167 17.6427 39.3833 17.2455 39.65C16.8844 39.8833 16.4691 40 15.9997 40ZM15.9997 19C17.5163 19 18.7983 18.5167 19.8455 17.55C20.8927 16.5833 21.4163 15.4 21.4163 14C21.4163 12.6 20.8927 11.4167 19.8455 10.45C18.7983 9.48333 17.5163 9 15.9997 9C14.483 9 13.2011 9.48333 12.1538 10.45C11.1066 11.4167 10.583 12.6 10.583 14C10.583 15.4 11.1066 16.5833 12.1538 17.55C13.2011 18.5167 14.483 19 15.9997 19Z" fill="#FACF0F"/>
</svg>
